<?xml version="1.0" encoding="UTF-8"?><svg id="a" xmlns="http://www.w3.org/2000/svg" viewBox="0 0 800 375.15"><defs><style>.b,.c{stroke:#000;stroke-miterlimit:10;}.d{font-family:'HarmonyOS_Sans_SC_Light', 'HarmonyOS Sans SC';font-size:28px;letter-spacing:.18em;}.c{stroke-width:4px;}</style></defs><path d="M440.77,148.08h17.44c.28,3.45,.52,6.5,.84,10.56,8.01-8.51,17.27-12.31,28.04-11.56,9.89,.7,18.47,4.54,25.46,11.85,15.01,15.68,16.19,40.15,2.6,57.39-13.37,16.97-33.61,19.1-55.83,5.37v36.79c0,3.44,.09,6.89-.06,10.33-.28,6.46-4.15,10.76-9.83,10.39-6-.39-9.47-3.68-9.35-10.04,.01-.74-.04-1.48-.04-2.21,.06-37.4,.12-74.79,.21-112.19,0-2.15,.32-4.29,.51-6.68h.01Zm65.4,41.08c.26-13.9-9.46-24.45-22.69-24.62-14.35-.19-24.61,9.5-24.75,23.37-.14,14.38,9.47,25.33,22.63,25.79,13.63,.48,24.54-10.31,24.81-24.54Z"/><path d="M400.86,148.03h17.95v81.59h-18.39c-.29-2.87-.55-5.49-.96-9.7-9.77,10-20.82,13.43-33.44,10.07-9.76-2.6-17.96-7.67-24-16.04-12.21-16.92-10.24-41.19,4.7-56.1,14.2-14.18,33.94-14.57,53.12-.61,.34-3.05,.64-5.81,1.02-9.21h0Zm-.78,40.65c0-14.19-9.66-24.42-23.09-24.45-13.59-.03-23.69,10.01-23.9,23.78-.22,14.01,10.47,25.3,24.16,25.51,12.6,.2,22.84-10.95,22.84-24.84h-.01Z"/><path d="M261.14,231.66h-19.5v-81.87h17.59c.39,2.57,.78,5.1,1.27,8.35,12.31-11.17,25.88-12.6,40.4-6.11,10.66,4.76,18.2,13.14,18.96,24.53,1.21,18.04,.32,36.22,.32,54.87h-17.72c0-11.49,.02-22.73,0-33.97,0-4.18,.16-8.39-.24-12.54-1.08-11.36-9.2-18.95-19.86-18.87-12.07,.09-20.36,7.31-20.92,19.25-.56,11.79-.24,23.62-.3,35.43-.02,3.4,0,6.8,0,10.94h0Z"/><path d="M640.59,127.97c-5.83,0-11.2-.14-16.56,.03-12.01,.38-18.97,6.48-19.73,18.46-.65,10.25-.13,20.56-.13,31.66h36.89v18.29h-37.1v34.66h-18.53v-10.98c-.06-21.15-.32-42.31-.08-63.46,.08-6.82,.6-13.86,2.41-20.38,4.32-15.65,17.55-25.38,33.79-25.97,1.47-.05,2.95-.06,4.43-.07,11.05-.05,15.92,5.87,14.62,17.77h0Z"/><path d="M163.59,218.16c3.03-3.94,6.13-7.98,9.3-12.1,6.14,2.27,11.91,4.96,17.97,6.42,3.87,.93,8.32,.61,12.23-.32,1.97-.46,4.49-3.43,4.63-5.42,.14-2.03-1.84-5.31-3.74-6.17-6.46-2.94-13.3-5.03-19.97-7.49-13.36-4.92-17.79-10.52-17.61-22.18,.16-10.49,7.05-18.84,19.18-22.35,11.55-3.33,22.78-2.24,33.57,3.47,4.96,2.62,6.68,5.38,2.5,10.1-1.94,2.19-3.48,4.72-5.33,7.27-4.96-1.64-9.72-3.39-14.59-4.74-2.32-.64-5.26-1.39-7.2-.51-3.49,1.59-6.43,4.37-9.61,6.65,2.46,2.35,4.54,5.53,7.46,6.89,6.43,3,13.37,4.85,19.93,7.58,9.7,4.03,14.37,11.56,13.92,22.05-.45,10.5-6.07,17.32-15.64,21.15-15.86,6.36-37.2,1.83-47.02-10.32l.02,.02h0Z"/><path d="M745.17,212.71v16.95c-17.6,5.73-37.23-7.5-39.27-27.32-1.2-11.65-.22-23.52-.22-35.95-6.31-.35-11.61-.64-17.32-.96v-17.19c5.44-.39,10.89-.79,16.99-1.23v-24.78h17.94v24.61h20.71v18.18h-21.34c.83,12.92,1.08,25.09,2.6,37.09,.82,6.49,5.97,9.87,12.75,10.07,2.16,.06,4.32,.31,7.16,.52h0Z"/><path d="M656.8,150.69h18.12v80.77h-18.12v-80.77Z"/><path d="M666.21,109.32c6.4,.41,11.56,6.15,11.11,12.35-.43,5.87-6.19,10.89-12.11,10.54-6.38-.37-11.49-6.16-10.97-12.43,.52-6.31,5.73-10.86,11.97-10.46h0Z"/><path d="M541.86,150.26h18.12v80.77h-18.12v-80.77h0Z"/><path d="M551.27,110.38c6.4,.41,11.56,6.15,11.11,12.35-.43,5.87-6.19,10.89-12.11,10.54-6.38-.37-11.49-6.16-10.97-12.43,.52-6.31,5.73-10.86,11.97-10.46h0Z"/><path class="c" d="M114.6,192.33c0-9.31,.18-18.63-.07-27.94-.15-5.75,1.72-10.34,5.98-14.08,3.98-3.5,8.29-6.71,11.86-10.59,18.02-19.6,20.82-42.28,12.56-66.81-3.54-10.52-9.41-19.7-17.75-27.24-15.89-14.35-35.16-13.88-50,1.64-23.22,24.29-28.08,64.92-2.29,93.03,3.56,3.88,3.41,7-.29,10.33-3.18,2.86-7.57,2.62-10.57-1.02-14.19-17.25-21.78-36.86-20.02-59.41,1.82-23.25,11.21-42.94,29.43-57.87,17.92-14.67,41.48-14.38,59.5,.36,28.16,23.03,37.79,63.21,23.06,96.37-5.29,11.91-13.49,21.54-23.86,29.28-3.03,2.26-4.01,4.84-3.99,8.4,.07,18.39,.02,36.79,0,55.18,0,2.22,.49,5.24-2.28,5.63-3.23,.45-6.68-.13-9.92-.8-.68-.14-1.23-2.63-1.24-4.05-.1-10.14-.06-20.28-.06-30.42h-.05Z"/><path class="b" d="M89.47,170.43c0-17.1,.06-34.2-.1-51.3-.02-1.73-.97-3.83-2.17-5.11-4.08-4.33-6.43-9.24-6.43-15.22,0-10.73,.04-21.46-.04-32.2-.03-3.48,1.68-5.52,4.74-6.64,3.75-1.37,5.94,.11,5.99,4.11,.06,4.72,.06,9.44-.03,14.15-.05,2.19,.73,3.31,3.01,3.37,2.37,.06,3.11-1.27,3.11-3.32,.01-5.78-.03-11.56,0-17.34,.03-3.76,1.57-5.15,5.54-5.12,3.8,.02,5.03,1.31,5.01,5.14-.02,5.54,.13,11.09-.07,16.63-.13,3.37,1.69,3.91,4.38,3.98,2.89,.07,3.18-1.6,3.13-3.9-.1-4.6-.09-9.2-.03-13.8,.03-2.42,.2-4.88,3.5-5.13,3.82-.29,7.43,1.81,7.52,4.81,.34,12.49,.98,25.01,.57,37.48-.34,10.39-9.03,18.43-19.72,19.16-3.44,.23-4.01,1.59-4.01,4.57,0,31.49-.14,62.98-.19,94.47-.02,9.6,.02,9.03-10.54,8.59-2.94-.12-3.25-2.66-3.26-5.01-.02-9.67-.02-19.34-.02-29.01v-23.35h.11Z"/><text class="d" transform="translate(49.66 330.61)"><tspan x="0" y="0">让健康生活更简单丨 数据驱动的个性化健康建议</tspan></text></svg>