<?xml version="1.0" encoding="UTF-8"?><svg id="a" xmlns="http://www.w3.org/2000/svg" viewBox="0 0 800 800"><defs><style>.b{stroke-width:3px;}.b,.c{stroke:#000;stroke-miterlimit:10;}.c{stroke-width:4px;}</style></defs><path class="c" d="M433.05,590.88c0-25.94,.5-51.89-.19-77.81-.43-16,4.8-28.79,16.66-39.2,11.09-9.74,23.08-18.68,33.01-29.49,50.17-54.59,57.98-117.75,34.99-186.05-9.86-29.29-26.21-54.87-49.44-75.85-44.24-39.95-97.92-38.64-139.23,4.57-64.65,67.63-78.19,180.8-6.38,259.07,9.92,10.82,9.5,19.49-.81,28.76-8.86,7.96-21.09,7.29-29.43-2.84-39.51-48.03-60.66-102.66-55.74-165.44,5.07-64.75,31.22-119.59,81.96-161.14,49.89-40.86,115.53-40.04,165.7,1,78.41,64.13,105.24,176.04,64.22,268.37-14.73,33.16-37.56,60-66.45,81.53-8.43,6.28-11.16,13.48-11.12,23.4,.2,51.22,.04,102.44,0,153.66,0,6.17,1.36,14.59-6.35,15.67-8.99,1.26-18.6-.35-27.62-2.22-1.9-.39-3.42-7.33-3.46-11.27-.29-28.23-.16-56.47-.16-84.71h-.16Z"/><path class="b" d="M363.08,529.89c0-47.62,.17-95.24-.27-142.86-.04-4.82-2.69-10.66-6.05-14.22-11.36-12.05-17.9-25.73-17.9-42.39,0-29.89,.12-59.77-.12-89.66-.08-9.69,4.67-15.37,13.2-18.48,10.45-3.81,16.53,.31,16.67,11.44,.17,13.13,.18,26.28-.1,39.41-.13,6.1,2.02,9.22,8.39,9.38,6.6,.17,8.65-3.55,8.66-9.25,.03-16.09-.09-32.18,.02-48.28,.07-10.48,4.38-14.33,15.44-14.27,10.57,.06,14.01,3.64,13.96,14.3-.07,15.44,.37,30.89-.21,46.3-.35,9.39,4.7,10.88,12.2,11.07,8.05,.21,8.86-4.45,8.72-10.85-.29-12.8-.25-25.61-.09-38.42,.08-6.75,.56-13.59,9.75-14.3,10.63-.82,20.7,5.03,20.93,13.39,.96,34.79,2.72,69.64,1.58,104.38-.95,28.94-25.16,51.34-54.91,53.36-9.57,.65-11.18,4.44-11.18,12.72-.02,87.69-.39,175.38-.52,263.07-.04,26.74,.05,25.16-29.36,23.92-8.2-.34-9.05-7.4-9.07-13.94-.07-26.93-.06-53.86-.07-80.79,0-21.68,0-43.35,0-65.03h.33Z"/></svg>